
<svg xmlns="http://www.w3.org/2000/svg" version="1.1" xmlns:xlink="http://www.w3.org/1999/xlink" preserveAspectRatio="none" x="0px" y="0px" width="64px" height="64px" viewBox="0 0 64 64">
<style>
svg { cursor:pointer; }
</style>
<defs>
<g id="Layer0_0_FILL">
<path fill="#FFFFFF" stroke="none" d="
M 64 13.75
Q 64 9.2 59.45 9.2
L 13.85 9.2
Q 9.35 9.2 9.35 13.75
L 9.35 59.45
Q 9.35 64 13.85 64
L 59.45 64
Q 64 64 64 59.45
L 64 13.75
M 49.2 18.35
Q 51.7 18.35 53.45 20.1 55.2 21.85 55.2 24.35 55.2 26.85 53.45 28.6 51.7 30.35 49.2 30.35 46.75 30.35 44.95 28.6 43.25 26.85 43.25 24.35 43.25 21.85 44.95 20.1 46.75 18.35 49.2 18.35
M 27.1 36.7
L 32.75 46.5 41.9 30.7 56.65 56.35 15.75 56.35 27.1 36.7
M 54.65 4.55
Q 54.65 0 50.15 0
L 4.55 0
Q 0 0 0 4.55
L 0 50.25
Q 0 54.8 4.55 54.8
L 4.8 54.8 4.8 9.2
Q 4.8 4.65 9.35 4.65
L 54.65 4.65 54.65 4.55 Z"/>
</g>
</defs>

<g transform="matrix( 1, 0, 0, 1, 0,0) ">
<use xlink:href="#Layer0_0_FILL"/>
</g>
</svg>
